<mxfile host="app.diagrams.net" modified="2024-04-10T20:43:45.531Z" agent="Mozilla/5.0 (Macintosh; Intel Mac OS X 10.15; rv:124.0) Gecko/20100101 Firefox/124.0" etag="4wMKO4w-RfaHgzKis0--" version="24.2.3" type="device">
  <diagram name="Page-1" id="t8dQxurb0vtzcfcr3BrJ">
    <mxGraphModel dx="2284" dy="738" grid="1" gridSize="10" guides="1" tooltips="1" connect="1" arrows="1" fold="1" page="1" pageScale="1" pageWidth="850" pageHeight="1100" math="0" shadow="0">
      <root>
        <mxCell id="0" />
        <mxCell id="1" parent="0" />
        <mxCell id="l6uFS37LyB5dvqOo2w7Q-1" value="&lt;div&gt;&amp;lt;&amp;lt;abstract&amp;gt;&amp;gt;&lt;/div&gt;&lt;div&gt;Empleado&lt;br&gt;&lt;/div&gt;" style="swimlane;fontStyle=1;align=center;verticalAlign=top;childLayout=stackLayout;horizontal=1;startSize=50;horizontalStack=0;resizeParent=1;resizeParentMax=0;resizeLast=0;collapsible=1;marginBottom=0;whiteSpace=wrap;html=1;" vertex="1" parent="1">
          <mxGeometry x="300" width="200" height="204" as="geometry" />
        </mxCell>
        <mxCell id="l6uFS37LyB5dvqOo2w7Q-3" value="" style="line;strokeWidth=1;fillColor=none;align=left;verticalAlign=middle;spacingTop=-1;spacingLeft=3;spacingRight=3;rotatable=0;labelPosition=right;points=[];portConstraint=eastwest;strokeColor=inherit;" vertex="1" parent="l6uFS37LyB5dvqOo2w7Q-1">
          <mxGeometry y="50" width="200" height="8" as="geometry" />
        </mxCell>
        <mxCell id="l6uFS37LyB5dvqOo2w7Q-4" value="&lt;div&gt;+ getSueldo(): Real&lt;/div&gt;&lt;div&gt;&lt;br&gt;&lt;/div&gt;&lt;div&gt;# &amp;lt;&amp;lt;abstract&amp;gt;&amp;gt; getBasico(): Real&lt;/div&gt;&lt;div&gt;&lt;br&gt;&lt;/div&gt;&lt;div&gt;# &amp;lt;&amp;lt;abstract&amp;gt;&amp;gt; getAdicional(): Real&lt;/div&gt;&lt;div&gt;&lt;br&gt;&lt;/div&gt;&lt;div&gt;- getDescuentoABasico(): Real&lt;/div&gt;&lt;div&gt;&lt;br&gt;&lt;/div&gt;&lt;div&gt;- getDescuentoAAdicional(): Real&lt;br&gt;&lt;/div&gt;" style="text;strokeColor=none;fillColor=none;align=left;verticalAlign=top;spacingLeft=4;spacingRight=4;overflow=hidden;rotatable=0;points=[[0,0.5],[1,0.5]];portConstraint=eastwest;whiteSpace=wrap;html=1;" vertex="1" parent="l6uFS37LyB5dvqOo2w7Q-1">
          <mxGeometry y="58" width="200" height="146" as="geometry" />
        </mxCell>
        <mxCell id="l6uFS37LyB5dvqOo2w7Q-5" value="EmpleadoPasante" style="swimlane;fontStyle=1;align=center;verticalAlign=top;childLayout=stackLayout;horizontal=1;startSize=26;horizontalStack=0;resizeParent=1;resizeParentMax=0;resizeLast=0;collapsible=1;marginBottom=0;whiteSpace=wrap;html=1;" vertex="1" parent="1">
          <mxGeometry x="500" y="320" width="480" height="150" as="geometry" />
        </mxCell>
        <mxCell id="l6uFS37LyB5dvqOo2w7Q-6" value="- examenesRendidos: Integer" style="text;strokeColor=none;fillColor=none;align=left;verticalAlign=top;spacingLeft=4;spacingRight=4;overflow=hidden;rotatable=0;points=[[0,0.5],[1,0.5]];portConstraint=eastwest;whiteSpace=wrap;html=1;" vertex="1" parent="l6uFS37LyB5dvqOo2w7Q-5">
          <mxGeometry y="26" width="480" height="26" as="geometry" />
        </mxCell>
        <mxCell id="l6uFS37LyB5dvqOo2w7Q-7" value="" style="line;strokeWidth=1;fillColor=none;align=left;verticalAlign=middle;spacingTop=-1;spacingLeft=3;spacingRight=3;rotatable=0;labelPosition=right;points=[];portConstraint=eastwest;strokeColor=inherit;" vertex="1" parent="l6uFS37LyB5dvqOo2w7Q-5">
          <mxGeometry y="52" width="480" height="8" as="geometry" />
        </mxCell>
        <mxCell id="l6uFS37LyB5dvqOo2w7Q-8" value="&lt;div&gt;+ &amp;lt;&amp;lt;create&amp;gt;&amp;gt; createEmpleadoPasante(examenesRedidos: Integer): EmpleadoPasante&lt;br&gt;&lt;/div&gt;&lt;div&gt;&lt;br&gt;&lt;/div&gt;&lt;div&gt;# getBasico(): Real&lt;/div&gt;&lt;div&gt;&lt;br&gt;&lt;/div&gt;&lt;div&gt;# getAdicional(): Real&lt;/div&gt;" style="text;strokeColor=none;fillColor=none;align=left;verticalAlign=top;spacingLeft=4;spacingRight=4;overflow=hidden;rotatable=0;points=[[0,0.5],[1,0.5]];portConstraint=eastwest;whiteSpace=wrap;html=1;" vertex="1" parent="l6uFS37LyB5dvqOo2w7Q-5">
          <mxGeometry y="60" width="480" height="90" as="geometry" />
        </mxCell>
        <mxCell id="l6uFS37LyB5dvqOo2w7Q-9" value="EmpleadoTemporario" style="swimlane;fontStyle=1;align=center;verticalAlign=top;childLayout=stackLayout;horizontal=1;startSize=26;horizontalStack=0;resizeParent=1;resizeParentMax=0;resizeLast=0;collapsible=1;marginBottom=0;whiteSpace=wrap;html=1;" vertex="1" parent="1">
          <mxGeometry x="-540" y="630" width="760" height="120" as="geometry" />
        </mxCell>
        <mxCell id="l6uFS37LyB5dvqOo2w7Q-10" value="- horasTrabajadas: Integer" style="text;strokeColor=none;fillColor=none;align=left;verticalAlign=top;spacingLeft=4;spacingRight=4;overflow=hidden;rotatable=0;points=[[0,0.5],[1,0.5]];portConstraint=eastwest;whiteSpace=wrap;html=1;" vertex="1" parent="l6uFS37LyB5dvqOo2w7Q-9">
          <mxGeometry y="26" width="760" height="26" as="geometry" />
        </mxCell>
        <mxCell id="l6uFS37LyB5dvqOo2w7Q-11" value="" style="line;strokeWidth=1;fillColor=none;align=left;verticalAlign=middle;spacingTop=-1;spacingLeft=3;spacingRight=3;rotatable=0;labelPosition=right;points=[];portConstraint=eastwest;strokeColor=inherit;" vertex="1" parent="l6uFS37LyB5dvqOo2w7Q-9">
          <mxGeometry y="52" width="760" height="8" as="geometry" />
        </mxCell>
        <mxCell id="l6uFS37LyB5dvqOo2w7Q-12" value="+ &amp;lt;&amp;lt;create&amp;gt;&amp;gt; createEmpleadoTemporario(estaCasado: Boolean, cantidadDeHijos: Integer, horasTrabajadas: Integer): EmpleadoTemporario&lt;br&gt;&lt;div&gt;&lt;br&gt;&lt;/div&gt;&lt;div&gt;# getBasico(): Real&lt;/div&gt;" style="text;strokeColor=none;fillColor=none;align=left;verticalAlign=top;spacingLeft=4;spacingRight=4;overflow=hidden;rotatable=0;points=[[0,0.5],[1,0.5]];portConstraint=eastwest;whiteSpace=wrap;html=1;" vertex="1" parent="l6uFS37LyB5dvqOo2w7Q-9">
          <mxGeometry y="60" width="760" height="60" as="geometry" />
        </mxCell>
        <mxCell id="l6uFS37LyB5dvqOo2w7Q-13" value="EmpleadoDePlanta" style="swimlane;fontStyle=1;align=center;verticalAlign=top;childLayout=stackLayout;horizontal=1;startSize=26;horizontalStack=0;resizeParent=1;resizeParentMax=0;resizeLast=0;collapsible=1;marginBottom=0;whiteSpace=wrap;html=1;" vertex="1" parent="1">
          <mxGeometry x="-70" y="810" width="730" height="150" as="geometry" />
        </mxCell>
        <mxCell id="l6uFS37LyB5dvqOo2w7Q-14" value="- anosTrabajados: Real" style="text;strokeColor=none;fillColor=none;align=left;verticalAlign=top;spacingLeft=4;spacingRight=4;overflow=hidden;rotatable=0;points=[[0,0.5],[1,0.5]];portConstraint=eastwest;whiteSpace=wrap;html=1;" vertex="1" parent="l6uFS37LyB5dvqOo2w7Q-13">
          <mxGeometry y="26" width="730" height="26" as="geometry" />
        </mxCell>
        <mxCell id="l6uFS37LyB5dvqOo2w7Q-15" value="" style="line;strokeWidth=1;fillColor=none;align=left;verticalAlign=middle;spacingTop=-1;spacingLeft=3;spacingRight=3;rotatable=0;labelPosition=right;points=[];portConstraint=eastwest;strokeColor=inherit;" vertex="1" parent="l6uFS37LyB5dvqOo2w7Q-13">
          <mxGeometry y="52" width="730" height="8" as="geometry" />
        </mxCell>
        <mxCell id="l6uFS37LyB5dvqOo2w7Q-16" value="&lt;div&gt;+ &amp;lt;&amp;lt;create&amp;gt;&amp;gt; createEmpleadoTemporario(estaCasado: Boolean, cantidadDeHijos: Integer, anosTrabajados: Real): EmpleadoDePlanta&lt;br&gt;&lt;/div&gt;&lt;div&gt;&lt;br&gt;&lt;/div&gt;&lt;div&gt;# getBasico(): Real&lt;/div&gt;&lt;div&gt;&lt;br&gt;&lt;/div&gt;&lt;div&gt;# getAdicional(): Real&lt;/div&gt;" style="text;strokeColor=none;fillColor=none;align=left;verticalAlign=top;spacingLeft=4;spacingRight=4;overflow=hidden;rotatable=0;points=[[0,0.5],[1,0.5]];portConstraint=eastwest;whiteSpace=wrap;html=1;" vertex="1" parent="l6uFS37LyB5dvqOo2w7Q-13">
          <mxGeometry y="60" width="730" height="90" as="geometry" />
        </mxCell>
        <mxCell id="l6uFS37LyB5dvqOo2w7Q-17" value="" style="endArrow=block;endSize=16;endFill=0;html=1;rounded=0;exitX=0.5;exitY=0;exitDx=0;exitDy=0;entryX=0.25;entryY=1;entryDx=0;entryDy=0;" edge="1" parent="1" source="l6uFS37LyB5dvqOo2w7Q-9" target="l6uFS37LyB5dvqOo2w7Q-20">
          <mxGeometry width="160" relative="1" as="geometry">
            <mxPoint x="140" y="174.5" as="sourcePoint" />
            <mxPoint x="-110" y="590" as="targetPoint" />
          </mxGeometry>
        </mxCell>
        <mxCell id="l6uFS37LyB5dvqOo2w7Q-18" value="" style="endArrow=block;endSize=16;endFill=0;html=1;rounded=0;exitX=0.5;exitY=0;exitDx=0;exitDy=0;entryX=1;entryY=1;entryDx=0;entryDy=0;" edge="1" parent="1" source="l6uFS37LyB5dvqOo2w7Q-5" target="l6uFS37LyB5dvqOo2w7Q-1">
          <mxGeometry x="0.1111" width="160" relative="1" as="geometry">
            <mxPoint x="570" y="350" as="sourcePoint" />
            <mxPoint x="570" y="260" as="targetPoint" />
            <mxPoint as="offset" />
          </mxGeometry>
        </mxCell>
        <mxCell id="l6uFS37LyB5dvqOo2w7Q-19" value="" style="endArrow=block;endSize=16;endFill=0;html=1;rounded=0;exitX=0.5;exitY=0;exitDx=0;exitDy=0;entryX=0.75;entryY=1;entryDx=0;entryDy=0;" edge="1" parent="1" source="l6uFS37LyB5dvqOo2w7Q-13" target="l6uFS37LyB5dvqOo2w7Q-20">
          <mxGeometry x="0.0267" y="-4" width="160" relative="1" as="geometry">
            <mxPoint x="560" y="130" as="sourcePoint" />
            <mxPoint x="280" y="540" as="targetPoint" />
            <mxPoint as="offset" />
          </mxGeometry>
        </mxCell>
        <mxCell id="l6uFS37LyB5dvqOo2w7Q-20" value="&lt;div&gt;&amp;lt;&amp;lt;abstract&amp;gt;&amp;gt;&lt;/div&gt;&lt;div&gt;EmpleadoFamiliar&lt;/div&gt;" style="swimlane;fontStyle=1;align=center;verticalAlign=top;childLayout=stackLayout;horizontal=1;startSize=50;horizontalStack=0;resizeParent=1;resizeParentMax=0;resizeLast=0;collapsible=1;marginBottom=0;whiteSpace=wrap;html=1;" vertex="1" parent="1">
          <mxGeometry x="-150" y="320" width="590" height="230" as="geometry" />
        </mxCell>
        <mxCell id="l6uFS37LyB5dvqOo2w7Q-21" value="&lt;div&gt;- estaCasado: Boolean&lt;/div&gt;&lt;div&gt;&lt;br&gt;&lt;/div&gt;&lt;div&gt;- cantidadDeHijos: Integer&lt;br&gt;&lt;/div&gt;" style="text;strokeColor=none;fillColor=none;align=left;verticalAlign=top;spacingLeft=4;spacingRight=4;overflow=hidden;rotatable=0;points=[[0,0.5],[1,0.5]];portConstraint=eastwest;whiteSpace=wrap;html=1;" vertex="1" parent="l6uFS37LyB5dvqOo2w7Q-20">
          <mxGeometry y="50" width="590" height="54" as="geometry" />
        </mxCell>
        <mxCell id="l6uFS37LyB5dvqOo2w7Q-22" value="" style="line;strokeWidth=1;fillColor=none;align=left;verticalAlign=middle;spacingTop=-1;spacingLeft=3;spacingRight=3;rotatable=0;labelPosition=right;points=[];portConstraint=eastwest;strokeColor=inherit;" vertex="1" parent="l6uFS37LyB5dvqOo2w7Q-20">
          <mxGeometry y="104" width="590" height="8" as="geometry" />
        </mxCell>
        <mxCell id="l6uFS37LyB5dvqOo2w7Q-23" value="# &amp;lt;&amp;lt;create&amp;gt;&amp;gt; createEmpleadoFamiliar(estaCasado: Boolean, cantidadDeHijos: Integer): EmpleadoFamiliar&lt;br&gt;&lt;div&gt;&lt;br&gt;&lt;/div&gt;&lt;div&gt;# getAdicional(): Real&lt;/div&gt;&lt;div&gt;&lt;br&gt;&lt;/div&gt;&lt;div&gt;-&amp;nbsp; calcularBonoPorCasado (): Real&lt;/div&gt;&lt;div&gt;&lt;br&gt;&lt;/div&gt;&lt;div&gt;- calcularBonoPorHijos(): Real&lt;br&gt;&lt;/div&gt;" style="text;strokeColor=none;fillColor=none;align=left;verticalAlign=top;spacingLeft=4;spacingRight=4;overflow=hidden;rotatable=0;points=[[0,0.5],[1,0.5]];portConstraint=eastwest;whiteSpace=wrap;html=1;" vertex="1" parent="l6uFS37LyB5dvqOo2w7Q-20">
          <mxGeometry y="112" width="590" height="118" as="geometry" />
        </mxCell>
        <mxCell id="l6uFS37LyB5dvqOo2w7Q-24" value="" style="endArrow=block;endSize=16;endFill=0;html=1;rounded=0;exitX=0.5;exitY=0;exitDx=0;exitDy=0;entryX=0;entryY=1;entryDx=0;entryDy=0;" edge="1" parent="1" source="l6uFS37LyB5dvqOo2w7Q-20" target="l6uFS37LyB5dvqOo2w7Q-1">
          <mxGeometry x="-0.004" width="160" relative="1" as="geometry">
            <mxPoint x="370" y="300" as="sourcePoint" />
            <mxPoint x="530" y="300" as="targetPoint" />
            <mxPoint as="offset" />
          </mxGeometry>
        </mxCell>
      </root>
    </mxGraphModel>
  </diagram>
</mxfile>
